<?xml version="1.0" encoding="UTF-8"?>
<svg id="Layer_2" data-name="Layer 2" xmlns="http://www.w3.org/2000/svg" viewBox="0 0 340.35 340.35">
  <defs>
    <style>
      .cls-1 {
        fill: none;
        stroke: #231f20;
        stroke-miterlimit: 10;
        stroke-width: 8px;
      }
    </style>
  </defs>
  <g id="Layer_1-2" data-name="Layer 1">
    <path class="cls-1" d="M336.35,186.08v-34.43l-46.84-8.27c-3.3-14.75-9.26-28.5-17.36-40.71l26.78-38.74-24.35-24.35-38.98,27.28c-12.36-7.84-26.22-13.53-41.06-16.53l-8.45-46.32h-34.43l-8.27,46.84c-14.75,3.3-28.5,9.26-40.71,17.36l-38.74-26.78-24.35,24.35,27.28,38.98c-7.84,12.36-13.53,26.22-16.53,41.06l-46.32,8.45v34.43l46.84,8.27c3.3,14.75,9.26,28.5,17.36,40.71l-26.78,38.74,24.35,24.35,38.98-27.28c12.36,7.84,26.22,13.53,41.06,16.53l8.45,46.32h34.43l8.27-46.84c14.75-3.3,28.5-9.26,40.71-17.36l38.74,26.78,24.35-24.35-27.28-38.98c7.84-12.36,13.53-26.22,16.53-41.06l46.32-8.45Z"/>
    <ellipse class="cls-1" cx="170.17" cy="170.17" rx="82.81" ry="84.33"/>
  </g>
</svg>