<?xml version="1.0" encoding="UTF-8"?>
<svg id="Layer_2" data-name="Layer 2" xmlns="http://www.w3.org/2000/svg" viewBox="0 0 282.74 288.05">
  <defs>
    <style>
      .cls-1, .cls-2 {
        stroke-width: 5px;
      }

      .cls-1, .cls-2, .cls-3 {
        stroke: #231f20;
        stroke-miterlimit: 10;
      }

      .cls-1, .cls-3 {
        fill: none;
      }

      .cls-2 {
        fill: #fff;
      }

      .cls-3 {
        stroke-width: 4px;
      }

      .cls-4 {
        fill: #231f20;
      }
    </style>
  </defs>
  <g id="Layer_1-2" data-name="Layer 1">
    <path class="cls-1" d="M105.35,93.64l.12-2.56c0-1.37,.46-3.68-.51-4.64l-33.24-33.24c-.66-.66-1.48-1.12-2.36-1.35S6.22,69.4,6.22,69.4c-2.2,.64-3.72,2.65-3.72,4.95V209c0,3.13,2.77,5.54,5.87,5.1l50.55-7.12c1.69-.24,3.39,.38,4.54,1.65l38.04,37.65c3.16,3.5-1.03,1.26-1.03-3.45v-2.24"/>
    <path class="cls-1" d="M105.52,88.58l-5,153.87c0,3.46,2.77,6.12,5.87,5.64l50.55-7.88c1.69-.26,3.39,.42,4.54,1.82l34.04,41.63c3.16,3.87,8.97,1.39,8.97-3.82V110.96c0-1.51-.54-2.96-1.51-4.03l-33.24-36.76c-.66-.73-1.48-1.24-2.36-1.49s-63.14,19.42-63.14,19.42"/>
    <line class="cls-2" x1="68.77" y1="51.84" x2="63.46" y2="208.62"/>
    <line class="cls-2" x1="166.87" y1="68.69" x2="161.56" y2="242.69"/>
    <path class="cls-4" d="M7.74,172.64c1.38-3.1,5.04-4.48,7.88-2.25,1.49,1.17,2.03,3.21,2.76,4.87,.89,2.03,2.14,3.72,3.99,4.96,3.77,2.54,8.34,2.03,12.58,2.89,3.84,.78,6.5,3.37,8.09,6.88,2.16,4.78,1.78,10.34,1.55,15.44-.14,3.22,4.86,3.21,5,0,.24-5.36,.48-11.05-1.47-16.16-1.68-4.42-4.69-8.35-9.16-10.18-2.54-1.04-5.29-1.21-7.99-1.47-2.01-.19-4.2-.48-5.92-1.63-1.84-1.23-2.4-3.53-3.26-5.44-.96-2.13-2.49-3.99-4.59-5.08-5-2.59-11.43-.61-13.76,4.63-.55,1.23-.36,2.69,.9,3.42,1.07,.62,2.87,.34,3.42-.9h0Z"/>
    <path class="cls-4" d="M82.24,64.65c-2.67,2.62-4.23,6.4-4.02,10.16,.24,4.31,2.7,7.78,5.1,11.19s4.77,6.59,7.95,9.11,7.21,4.39,11.4,5.01c1.33,.2,2.69-.33,3.08-1.75,.32-1.18-.4-2.87-1.75-3.08-3.33-.5-6.49-1.69-9.19-3.73s-4.76-4.71-6.68-7.4-4.32-5.47-4.85-8.74c-.43-2.67,.59-5.38,2.49-7.25,2.3-2.26-1.24-5.79-3.54-3.54h0Z"/>
    <path class="cls-4" d="M106.25,206.21c2.99-2.91,7.54-3.58,11.18-1.47,4.1,2.38,4.82,7.15,6.51,11.18,1.9,4.54,5.28,8.4,10.52,8.54,4.24,.11,8.79-2.66,12.73-.15,4.47,2.86,5.16,8.99,5.85,13.77,.19,1.34,1.89,2.07,3.08,1.75,1.44-.4,1.94-1.73,1.75-3.08-.76-5.34-1.81-10.93-5.8-14.89-1.75-1.73-4-3.07-6.45-3.47-2.79-.45-5.49,.22-8.21,.75-2.07,.4-4.24,.62-5.98-.8s-2.65-3.59-3.38-5.61c-.91-2.53-1.67-5.19-3.12-7.49-1.37-2.18-3.32-4.03-5.63-5.18-5.53-2.77-12.14-1.7-16.57,2.61-2.31,2.25,1.23,5.78,3.54,3.54h0Z"/>
    <path class="cls-4" d="M168.13,114.17c7.03,0,12.95,4.94,14.3,11.82,.72,3.66-.48,7.28-.97,10.88-.52,3.82,.01,7.31,1.73,10.76,2.6,5.23,8.1,9.96,7.75,16.24-.2,3.65-2.29,7.06-4.37,9.95s-4.59,5.45-7.36,7.64c-3.01,2.39-6.42,3.99-9.76,5.84s-6.35,4.28-7.91,7.98c-.52,1.25,.56,2.75,1.75,3.08,1.44,.4,2.55-.5,3.08-1.75,1.14-2.72,4.27-4.29,6.73-5.59,3.33-1.76,6.53-3.54,9.5-5.89s5.74-5.29,8.06-8.45c2.47-3.37,4.58-7.21,5.14-11.4,.51-3.74-.47-7.26-2.27-10.53-1.58-2.87-3.65-5.43-5.28-8.27-1.72-2.99-2.35-5.93-1.8-9.37,.68-4.2,1.64-8.17,.81-12.43-1.77-9.03-10.01-15.49-19.12-15.5-3.22,0-3.22,5,0,5h0Z"/>
    <path class="cls-1" d="M143.62,74.6c-.28-2.25,.07,.12,.02-2.19-.01-.53-.02-1.06-.02-1.59,0-37.73,30.59-68.31,68.31-68.31s68.31,30.59,68.31,68.31-30.59,68.31-68.31,68.31c-3.57,0-4.03,.12-7.45-.41"/>
    <path class="cls-1" d="M158.98,72.96c-.11-2.51-.01-5.54,0-4.27,0,.42-.13,2.55-.13,2.12,0-30.12,23.76-54.54,53.08-54.54s53.08,24.42,53.08,54.54-23.76,54.54-53.08,54.54c-2.5,0-4.96-.18-7.37-.52"/>
    <path class="cls-1" d="M227.81,137.27l31.14,98.3c1.23,3.89,5.45,5.97,9.29,4.59l1.82-.65c3.21-1.16,4.93-4.66,3.87-7.91l-32.21-99.28"/>
    <line class="cls-3" x1="237.78" y1="36.35" x2="231.6" y2="69.47"/>
    <line class="cls-3" x1="249.49" y1="49.05" x2="246.43" y2="65.46"/>
  </g>
</svg>